{
  "accessors": [
    {
      "bufferView": 2,
      "componentType": 5126,
      "count": 17337,
      "max": [
        2.004730224609375,
        1.1515917778015137,
        0.11702048033475876
      ],
      "min": [
        -1.1550307273864746,
        -1.8956011533737183,
        -2.9740092754364014
      ],
      "type": "VEC3"
    },
    {
      "bufferView": 2,
      "byteOffset": 208044,
      "componentType": 5126,
      "count": 17337,
      "max": [
        0.9998531341552734,
        0.9998942613601685,
        0.9999351501464844
      ],
      "min": [
        -0.999942421913147,
        -0.9998573064804077,
        -0.9999853372573853
      ],
      "type": "VEC3"
    },
    {
      "bufferView": 1,
      "componentType": 5126,
      "count": 17337,
      "max": [
        0.0,
        0.0
      ],
      "min": [
        0.0,
        0.0
      ],
      "type": "VEC2"
    },
    {
      "bufferView": 0,
      "componentType": 5125,
      "count": 103974,
      "type": "SCALAR"
    },
    {
      "bufferView": 2,
      "byteOffset": 416088,
      "componentType": 5126,
      "count": 58131,
      "max": [
        2.3385772705078125,
        1.2930361032485962,
        7.103343486785889
      ],
      "min": [
        -2.2141313552856445,
        -1.5705193281173706,
        -2.8484976291656494
      ],
      "type": "VEC3"
    },
    {
      "bufferView": 2,
      "byteOffset": 1113660,
      "componentType": 5126,
      "count": 58131,
      "max": [
        0.9999901056289673,
        0.9999935626983643,
        0.9999735355377197
      ],
      "min": [
        -0.9999945163726807,
        -0.9999954700469971,
        -0.9999443292617798
      ],
      "type": "VEC3"
    },
    {
      "bufferView": 1,
      "byteOffset": 138696,
      "componentType": 5126,
      "count": 58131,
      "max": [
        1.0000001192092896,
        0.8125001192092896
      ],
      "min": [
        0.0,
        0.0
      ],
      "type": "VEC2"
    },
    {
      "bufferView": 0,
      "byteOffset": 415896,
      "componentType": 5125,
      "count": 347940,
      "type": "SCALAR"
    },
    {
      "bufferView": 2,
      "byteOffset": 1811232,
      "componentType": 5126,
      "count": 5567,
      "max": [
        1.0980544090270996,
        0.8078982830047607,
        -0.9799668192863464
      ],
      "min": [
        -0.9068180918693542,
        -1.1894073486328125,
        -1.6508938074111938
      ],
      "type": "VEC3"
    },
    {
      "bufferView": 2,
      "byteOffset": 1878036,
      "componentType": 5126,
      "count": 5567,
      "max": [
        0.9999853372573853,
        0.9998492002487183,
        0.9998348951339722
      ],
      "min": [
        -0.9999425411224365,
        -0.9998741149902344,
        -0.9999978542327881
      ],
      "type": "VEC3"
    },
    {
      "bufferView": 1,
      "byteOffset": 603744,
      "componentType": 5126,
      "count": 5567,
      "max": [
        1.000000238418579,
        1.0000001192092896
      ],
      "min": [
        0.0,
        0.0
      ],
      "type": "VEC2"
    },
    {
      "bufferView": 0,
      "byteOffset": 1807656,
      "componentType": 5125,
      "count": 30720,
      "type": "SCALAR"
    },
    {
      "bufferView": 2,
      "byteOffset": 1944840,
      "componentType": 5126,
      "count": 3106,
      "max": [
        0.6269545555114746,
        5.34074068069458,
        1.5872701406478882
      ],
      "min": [
        -15.094286918640137,
        -10.11629581451416,
        -23.906389236450195
      ],
      "type": "VEC3"
    },
    {
      "bufferView": 2,
      "byteOffset": 1982112,
      "componentType": 5126,
      "count": 3106,
      "max": [
        0.999667763710022,
        0.9986421465873718,
        0.9996868371963501
      ],
      "min": [
        -0.9979880452156067,
        -0.9991863965988159,
        -0.9989064335823059
      ],
      "type": "VEC3"
    },
    {
      "bufferView": 1,
      "byteOffset": 648280,
      "componentType": 5126,
      "count": 3106,
      "max": [
        1.000000238418579,
        1.000000238418579
      ],
      "min": [
        0.0,
        0.0
      ],
      "type": "VEC2"
    },
    {
      "bufferView": 0,
      "byteOffset": 1930536,
      "componentType": 5125,
      "count": 16086,
      "type": "SCALAR"
    },
    {
      "bufferView": 2,
      "byteOffset": 2019384,
      "componentType": 5126,
      "count": 1118,
      "max": [
        0.16446751356124878,
        -0.07303398847579956,
        0.5459968447685242
      ],
      "min": [
        -0.16446751356124878,
        -0.21717502176761627,
        0.40185579657554626
      ],
      "type": "VEC3"
    },
    {
      "bufferView": 2,
      "byteOffset": 2032800,
      "componentType": 5126,
      "count": 1118,
      "max": [
        1.0,
        0.9985728859901428,
        0.9985728859901428
      ],
      "min": [
        -1.0,
        -0.9985728859901428,
        -0.9985728859901428
      ],
      "type": "VEC3"
    },
    {
      "bufferView": 1,
      "byteOffset": 673128,
      "componentType": 5126,
      "count": 1118,
      "max": [
        1.000000238418579,
        1.0
      ],
      "min": [
        0.0,
        0.0
      ],
      "type": "VEC2"
    },
    {
      "bufferView": 0,
      "byteOffset": 1994880,
      "componentType": 5125,
      "count": 5760,
      "type": "SCALAR"
    }
  ],
  "asset": {
    "extras": {
      "author": "Filip (https://sketchfab.com/filip.hans.nyberg)",
      "license": "CC-BY-4.0 (http://creativecommons.org/licenses/by/4.0/)",
      "source": "https://sketchfab.com/3d-models/david-statue-f0e3d5b992d54d159ee26003e239b972",
      "title": "David Statue"
    },
    "generator": "Sketchfab-12.68.0",
    "version": "2.0"
  },
  "bufferViews": [
    {
      "buffer": 0,
      "byteLength": 2017920,
      "name": "floatBufferViews",
      "target": 34963
    },
    {
      "buffer": 0,
      "byteLength": 682072,
      "byteOffset": 2017920,
      "byteStride": 8,
      "name": "floatBufferViews",
      "target": 34962
    },
    {
      "buffer": 0,
      "byteLength": 2046216,
      "byteOffset": 2699992,
      "byteStride": 12,
      "name": "floatBufferViews",
      "target": 34962
    }
  ],
  "buffers": [
    {
      "byteLength": 4746208,
      "uri": "scene.bin"
    }
  ],
  "materials": [
    {
      "doubleSided": true,
      "name": "Scene_-_Root",
      "pbrMetallicRoughness": {
        "metallicFactor": 0.0,
        "roughnessFactor": 0.6
      }
    }
  ],
  "meshes": [
    {
      "name": "Cube__0",
      "primitives": [
        {
          "attributes": {
            "NORMAL": 1,
            "POSITION": 0,
            "TEXCOORD_0": 2
          },
          "indices": 3,
          "material": 0,
          "mode": 4
        }
      ]
    },
    {
      "name": "Mball.001__0",
      "primitives": [
        {
          "attributes": {
            "NORMAL": 5,
            "POSITION": 4,
            "TEXCOORD_0": 6
          },
          "indices": 7,
          "material": 0,
          "mode": 4
        }
      ]
    },
    {
      "name": "Plane__0",
      "primitives": [
        {
          "attributes": {
            "NORMAL": 9,
            "POSITION": 8,
            "TEXCOORD_0": 10
          },
          "indices": 11,
          "material": 0,
          "mode": 4
        }
      ]
    },
    {
      "name": "Plane.001__0",
      "primitives": [
        {
          "attributes": {
            "NORMAL": 13,
            "POSITION": 12,
            "TEXCOORD_0": 14
          },
          "indices": 15,
          "material": 0,
          "mode": 4
        }
      ]
    },
    {
      "name": "Sphere.001__0",
      "primitives": [
        {
          "attributes": {
            "NORMAL": 17,
            "POSITION": 16,
            "TEXCOORD_0": 18
          },
          "indices": 19,
          "material": 0,
          "mode": 4
        }
      ]
    }
  ],
  "nodes": [
    {
      "children": [
        1
      ],
      "matrix": [
        1.0,
        0.0,
        0.0,
        0.0,
        0.0,
        2.220446049250313e-16,
        -1.0,
        0.0,
        0.0,
        1.0,
        2.220446049250313e-16,
        0.0,
        0.0,
        0.0,
        0.0,
        1.0
      ],
      "name": "Sketchfab_model"
    },
    {
      "children": [
        2
      ],
      "matrix": [
        1.0,
        0.0,
        0.0,
        0.0,
        0.0,
        0.0,
        1.0,
        0.0,
        0.0,
        -1.0,
        0.0,
        0.0,
        0.0,
        0.0,
        0.0,
        1.0
      ],
      "name": "b262cc4d7cf84cffadd83c040d354878.fbx"
    },
    {
      "children": [
        3,
        5,
        7,
        9,
        11
      ],
      "name": "RootNode"
    },
    {
      "children": [
        4
      ],
      "matrix": [
        42.319139833144696,
        0.0,
        5.464177580484831,
        0.0,
        5.464177580484827,
        -1.8651844432035657e-06,
        -42.319139833144646,
        0.0,
        2.3884684037666965e-07,
        42.67045211791988,
        -1.8498287564169869e-06,
        0.0,
        -29.967004776000977,
        717.9482421875,
        -54.13051223754883,
        1.0
      ],
      "name": "Cube"
    },
    {
      "mesh": 0,
      "name": "Cube__0"
    },
    {
      "children": [
        6
      ],
      "matrix": [
        100.0,
        0.0,
        0.0,
        0.0,
        0.0,
        -1.629206793918314e-05,
        -99.99999999999868,
        0.0,
        0.0,
        99.99999999999868,
        -1.629206793918314e-05,
        0.0,
        0.0,
        0.0,
        0.0,
        1.0
      ],
      "name": "Mball.001"
    },
    {
      "mesh": 1,
      "name": "Mball.001__0"
    },
    {
      "children": [
        8
      ],
      "matrix": [
        241.37489318847656,
        0.0,
        0.0,
        0.0,
        0.0,
        -3.9324961586397345e-05,
        -241.37489318847338,
        0.0,
        0.0,
        241.37489318847338,
        -3.9324961586397345e-05,
        0.0,
        0.0,
        0.0,
        0.0,
        1.0
      ],
      "name": "Plane"
    },
    {
      "mesh": 2,
      "name": "Plane__0"
    },
    {
      "children": [
        10
      ],
      "matrix": [
        16.399757572387475,
        0.0,
        -5.971414639506317,
        0.0,
        -5.97141463950631,
        -7.628981870005889e-07,
        -16.39975757238746,
        0.0,
        -2.610188338076861e-07,
        17.45307540893553,
        -7.168562021657534e-07,
        0.0,
        90.95997619628906,
        555.0980834960938,
        -42.79452133178711,
        1.0
      ],
      "name": "Plane.001"
    },
    {
      "mesh": 3,
      "name": "Plane.001__0"
    },
    {
      "children": [
        12
      ],
      "matrix": [
        108.31046882601666,
        -1.832637435360794e-14,
        -124.5661187261766,
        0.0,
        -124.56611872617647,
        -7.215408796654328e-06,
        -108.31046882601656,
        0.0,
        -5.444959199058029e-06,
        165.06933593749986,
        -4.734402045516398e-06,
        0.0,
        -1.0943509340286255,
        574.5978393554688,
        -24.49122428894043,
        1.0
      ],
      "name": "Sphere.001"
    },
    {
      "mesh": 4,
      "name": "Sphere.001__0"
    }
  ],
  "scene": 0,
  "scenes": [
    {
      "name": "Sketchfab_Scene",
      "nodes": [
        0
      ]
    }
  ]
}
